<svg xmlns="http://www.w3.org/2000/svg" xmlns:xlink="http://www.w3.org/1999/xlink" width="350" height="140"><defs><linearGradient id="c" x1="50%" x2="50%" y1=".78%" y2="100%"><stop offset="0%" stop-color="#0989B4" stop-opacity="0"/><stop offset="99.94%" stop-color="#53FFEE"/></linearGradient><linearGradient id="d" x1="50%" x2="50%" y1=".78%" y2="100%"><stop offset="0%" stop-color="#0989B4" stop-opacity="0"/><stop offset="99.94%" stop-color="#53FFEE"/></linearGradient><path id="a" d="M0 0h350v140H0z"/></defs><g fill="none" fill-rule="evenodd"><mask id="b" fill="#fff"><use xlink:href="#a"/></mask><use xlink:href="#a" fill="#41CBD3"/><g mask="url(#b)" opacity=".5"><g transform="translate(-11 -4)"><ellipse cx="60.48" cy="14.8" fill="url(#c)" rx="14.8" ry="14.83" transform="rotate(90 60.48 14.8)"/><ellipse cx="14.83" cy="14.8" fill="url(#d)" rx="14.83" ry="14.8" transform="rotate(180 14.83 14.8)"/><ellipse cx="151.77" cy="14.8" fill="url(#d)" rx="14.83" ry="14.8"/><ellipse cx="106.12" cy="14.8" fill="url(#c)" rx="14.8" ry="14.83" transform="rotate(-90 106.12 14.8)"/><ellipse cx="243.06" cy="14.8" fill="url(#c)" rx="14.8" ry="14.83" transform="rotate(90 243.06 14.8)"/><ellipse cx="197.41" cy="14.8" fill="url(#d)" rx="14.83" ry="14.8" transform="rotate(180 197.41 14.8)"/><ellipse cx="334.34" cy="14.8" fill="url(#d)" rx="14.83" ry="14.8"/><ellipse cx="288.7" cy="14.8" fill="url(#c)" rx="14.8" ry="14.83" transform="rotate(-90 288.7 14.8)"/></g><g transform="translate(-11 91.63)"><ellipse cx="60.48" cy="14.8" fill="url(#c)" rx="14.8" ry="14.83" transform="rotate(90 60.48 14.8)"/><ellipse cx="14.83" cy="14.8" fill="url(#d)" rx="14.83" ry="14.8" transform="rotate(180 14.83 14.8)"/><ellipse cx="151.77" cy="14.8" fill="url(#d)" rx="14.83" ry="14.8"/><ellipse cx="106.12" cy="14.8" fill="url(#c)" rx="14.8" ry="14.83" transform="rotate(-90 106.12 14.8)"/><ellipse cx="243.06" cy="14.8" fill="url(#c)" rx="14.8" ry="14.83" transform="rotate(90 243.06 14.8)"/><ellipse cx="197.41" cy="14.8" fill="url(#d)" rx="14.83" ry="14.8" transform="rotate(180 197.41 14.8)"/><ellipse cx="334.34" cy="14.8" fill="url(#d)" rx="14.83" ry="14.8"/><ellipse cx="288.7" cy="14.8" fill="url(#c)" rx="14.8" ry="14.83" transform="rotate(-90 288.7 14.8)"/></g><g transform="translate(-11 43.81)"><ellipse cx="60.48" cy="14.8" fill="url(#c)" rx="14.8" ry="14.83" transform="rotate(-90 60.48 14.8)"/><ellipse cx="14.83" cy="14.8" fill="url(#d)" rx="14.83" ry="14.8"/><ellipse cx="151.77" cy="14.8" fill="url(#d)" rx="14.83" ry="14.8"/><ellipse cx="106.12" cy="14.8" fill="url(#c)" rx="14.8" ry="14.83" transform="rotate(90 106.12 14.8)"/><ellipse cx="243.06" cy="14.8" fill="url(#c)" rx="14.8" ry="14.83" transform="rotate(-90 243.06 14.8)"/><ellipse cx="197.41" cy="14.8" fill="url(#d)" rx="14.83" ry="14.8"/><ellipse cx="334.34" cy="14.8" fill="url(#d)" rx="14.83" ry="14.8"/><ellipse cx="288.7" cy="14.8" fill="url(#c)" rx="14.8" ry="14.83" transform="rotate(90 288.7 14.8)"/></g><g transform="translate(11.82 18.77)"><ellipse cx="60.48" cy="14.8" fill="url(#c)" rx="14.8" ry="14.83" transform="rotate(90 60.48 14.8)"/><ellipse cx="14.83" cy="14.8" fill="url(#d)" rx="14.83" ry="14.8" transform="rotate(180 14.83 14.8)"/><ellipse cx="151.77" cy="14.8" fill="url(#d)" rx="14.83" ry="14.8"/><ellipse cx="106.12" cy="14.8" fill="url(#c)" rx="14.8" ry="14.83" transform="rotate(-90 106.12 14.8)"/><ellipse cx="243.06" cy="14.8" fill="url(#c)" rx="14.8" ry="14.83" transform="rotate(90 243.06 14.8)"/><ellipse cx="197.41" cy="14.8" fill="url(#d)" rx="14.83" ry="14.8" transform="rotate(180 197.41 14.8)"/><ellipse cx="334.34" cy="14.8" fill="url(#d)" rx="14.83" ry="14.8"/><ellipse cx="288.7" cy="14.8" fill="url(#c)" rx="14.8" ry="14.83" transform="rotate(-90 288.7 14.8)"/></g><g transform="translate(11.82 114.4)"><ellipse cx="60.48" cy="14.8" fill="url(#c)" rx="14.8" ry="14.83" transform="rotate(90 60.48 14.8)"/><ellipse cx="14.83" cy="14.8" fill="url(#d)" rx="14.83" ry="14.8" transform="rotate(180 14.83 14.8)"/><ellipse cx="151.77" cy="14.8" fill="url(#d)" rx="14.83" ry="14.8"/><ellipse cx="106.12" cy="14.8" fill="url(#c)" rx="14.8" ry="14.83" transform="rotate(-90 106.12 14.8)"/><ellipse cx="243.06" cy="14.8" fill="url(#c)" rx="14.8" ry="14.83" transform="rotate(90 243.06 14.8)"/><ellipse cx="197.41" cy="14.8" fill="url(#d)" rx="14.83" ry="14.8" transform="rotate(180 197.41 14.8)"/><ellipse cx="334.34" cy="14.8" fill="url(#d)" rx="14.83" ry="14.8"/><ellipse cx="288.7" cy="14.8" fill="url(#c)" rx="14.8" ry="14.83" transform="rotate(-90 288.7 14.8)"/></g><g transform="translate(11.82 66.58)"><ellipse cx="60.48" cy="14.8" fill="url(#c)" rx="14.8" ry="14.83" transform="rotate(-90 60.48 14.8)"/><ellipse cx="14.83" cy="14.8" fill="url(#d)" rx="14.83" ry="14.8"/><ellipse cx="151.77" cy="14.8" fill="url(#d)" rx="14.83" ry="14.8"/><ellipse cx="106.12" cy="14.8" fill="url(#c)" rx="14.8" ry="14.83" transform="rotate(90 106.12 14.8)"/><ellipse cx="243.06" cy="14.8" fill="url(#c)" rx="14.8" ry="14.83" transform="rotate(-90 243.06 14.8)"/><ellipse cx="197.41" cy="14.8" fill="url(#d)" rx="14.83" ry="14.8"/><ellipse cx="334.34" cy="14.8" fill="url(#d)" rx="14.83" ry="14.8"/><ellipse cx="288.7" cy="14.8" fill="url(#c)" rx="14.8" ry="14.83" transform="rotate(90 288.7 14.8)"/></g></g></g></svg>